####
#
# OBJ File Generated by Meshlab
#
####
# Object A_simple.obj
#
# Vertices: 169
# Faces: 203
#
####
vn 1.670404 -2.720306 0.227178
v -7.565805 -36.111214 726.005798 1.000000 1.000000 1.000000
vn 1.877525 -2.422747 0.361902
v -7.565773 -35.943474 727.018127 1.000000 1.000000 1.000000
vn 0.412802 1.149434 -0.148436
v -7.437250 -26.870100 725.505005 1.000000 1.000000 1.000000
vn 1.754871 -2.663181 0.266717
v -7.565812 -35.795780 728.959656 1.000000 1.000000 1.000000
vn 1.847410 -2.423452 0.389924
v -7.565784 -35.600292 729.983826 1.000000 1.000000 1.000000
vn -2.110122 0.128399 0.271258
v -7.565921 -28.735184 736.685425 1.000000 1.000000 1.000000
vn -2.091929 -0.135766 0.341129
v -7.566685 -29.214401 736.664368 1.000000 1.000000 1.000000
vn -1.904393 2.469018 0.320822
v -7.565780 -30.577801 735.984985 1.000000 1.000000 1.000000
vn -1.794765 2.659974 0.215441
v -7.565826 -30.819584 737.347046 1.000000 1.000000 1.000000
vn -0.682261 3.014437 -0.669687
v -7.565819 -24.570753 734.164551 1.000000 1.000000 1.000000
vn 1.726499 -2.538518 0.158084
v -7.565795 -35.168766 734.328613 1.000000 1.000000 1.000000
vn -0.977545 2.841683 -0.724124
v -7.565804 -23.694723 736.894836 1.000000 1.000000 1.000000
vn -3.507437 1.716479 0.485182
v -7.565786 -30.444679 735.195923 1.000000 1.000000 1.000000
vn -4.229671 -1.007828 0.955572
v -7.565787 -30.107498 735.036560 1.000000 1.000000 1.000000
vn 1.070645 -2.833752 0.462049
v -7.566511 -27.300039 738.331360 1.000000 1.000000 1.000000
vn 0.609448 -2.804654 0.984731
v -7.565780 -27.740200 736.820007 1.000000 1.000000 1.000000
vn -4.626558 -0.679884 1.007783
v -7.564509 -28.325020 736.085754 1.000000 1.000000 1.000000
vn 1.712427 -2.653760 0.076160
v -7.565780 -35.151402 738.976990 1.000000 1.000000 1.000000
vn 1.235816 -2.868986 0.212516
v -7.565780 -27.106224 740.402222 1.000000 1.000000 1.000000
vn -1.242357 2.933982 -0.355309
v -7.566088 -30.904095 739.950806 1.000000 1.000000 1.000000
vn -1.016608 2.924560 -0.378474
v -7.565811 -23.317919 739.065674 1.000000 1.000000 1.000000
vn 2.281152 -2.175231 -0.037761
v -5.619783 -33.541908 745.593140 1.000000 1.000000 1.000000
vn -1.248352 2.852621 -0.177943
v -7.566115 -23.024467 741.778442 1.000000 1.000000 1.000000
vn 0.382110 3.021146 -0.906601
v -2.616383 -21.666323 745.593018 1.000000 1.000000 1.000000
vn 1.694269 -2.550264 -0.110347
v -7.565817 -26.924177 743.078552 1.000000 1.000000 1.000000
vn -0.962035 2.924361 -0.542375
v -7.565780 -30.353399 742.994019 1.000000 1.000000 1.000000
vn 1.487206 -2.794467 0.247068
v -7.565977 -35.041668 741.953979 1.000000 1.000000 1.000000
vn -0.208219 3.090564 -0.568426
v -3.433250 -21.634100 745.593018 1.000000 1.000000 1.000000
vn -1.695348 2.592992 0.082460
v -7.565821 -22.936008 743.466980 1.000000 1.000000 1.000000
vn 2.889796 -0.133335 -1.348234
v 0.589984 -27.423731 745.593384 1.000000 1.000000 1.000000
vn 3.029617 -2.069420 -1.722102
v -7.565499 -27.051104 744.985291 1.000000 1.000000 1.000000
vn 0.079642 3.058254 -0.775330
v -3.081771 -21.634974 745.593018 1.000000 1.000000 1.000000
vn 1.010751 2.662586 -1.098175
v -1.664297 -21.971680 745.593018 1.000000 1.000000 1.000000
vn 1.096613 2.752876 -1.155206
v -1.781930 -21.914900 745.593018 1.000000 1.000000 1.000000
vn 2.795162 -0.683150 -1.471647
v 0.441729 -28.582603 745.593384 1.000000 1.000000 1.000000
vn -2.202739 2.075995 -0.015480
v -4.319769 -29.053730 745.593079 1.000000 1.000000 1.000000
vn 0.842252 -3.015441 0.346646
v -2.475519 -31.399065 745.593689 1.000000 1.000000 1.000000
vn 1.109269 -2.919760 0.297553
v -3.729128 -31.765091 745.593018 1.000000 1.000000 1.000000
vn 0.876395 -2.962683 0.363010
v -3.032932 -31.617586 745.593018 1.000000 1.000000 1.000000
vn 0.782444 2.888648 -1.054452
v -2.301664 -21.737492 745.593018 1.000000 1.000000 1.000000
vn -0.535667 3.084349 -0.512131
v -4.645745 -21.717451 745.595520 1.000000 1.000000 1.000000
vn 1.441751 2.601722 -1.244261
v -1.102830 -22.166000 745.593018 1.000000 1.000000 1.000000
vn 0.876324 2.857689 -1.091794
v -1.473142 -22.018692 745.593018 1.000000 1.000000 1.000000
vn 1.922887 2.174614 -1.311790
v -0.847223 -22.367842 745.593018 1.000000 1.000000 1.000000
vn 2.138784 1.942415 -1.325355
v -0.611117 -22.604300 745.593018 1.000000 1.000000 1.000000
vn 2.375137 1.673304 -1.329505
v -0.410810 -22.847790 745.593018 1.000000 1.000000 1.000000
vn 2.549749 1.376412 -1.299600
v -0.249674 -23.114918 745.593018 1.000000 1.000000 1.000000
vn -0.939077 3.355705 -1.022374
v -7.046066 -22.712696 745.371460 1.000000 1.000000 1.000000
vn 2.207606 -0.784878 -0.671196
v -7.549899 -22.990524 744.868591 1.000000 1.000000 1.000000
vn 2.793739 0.968474 -1.246087
v -0.000143 -23.627464 745.593018 1.000000 1.000000 1.000000
vn 2.953314 0.441606 -1.115853
v 0.101613 -24.042465 745.593018 1.000000 1.000000 1.000000
vn 2.602011 0.799668 -1.150645
v 0.166439 -24.810396 745.593018 1.000000 1.000000 1.000000
vn 2.810615 0.974263 -1.066074
v 0.245447 -24.972300 745.593018 1.000000 1.000000 1.000000
vn 2.929063 0.190502 -1.208369
v 0.586668 -26.780233 745.593567 1.000000 1.000000 1.000000
vn 0.198364 0.157125 -1.374037
v -4.712202 -25.867931 745.589661 1.000000 1.000000 1.000000
vn -0.775625 -2.577254 -1.125221
v -4.517230 -27.503601 745.595886 1.000000 1.000000 1.000000
vn -4.368574 -0.693368 1.907755
v -3.323798 -27.437611 749.261963 1.000000 1.000000 1.000000
vn -2.935454 0.353748 0.491599
v -4.078863 -28.567421 745.593811 1.000000 1.000000 1.000000
vn -1.728856 2.620472 -0.138441
v -4.968538 -29.475876 745.593201 1.000000 1.000000 1.000000
vn 2.531176 -1.425400 -1.417520
v 0.018125 -29.688755 745.593079 1.000000 1.000000 1.000000
vn -1.029834 2.832495 -0.376122
v -5.545248 -29.860144 745.593018 1.000000 1.000000 1.000000
vn 1.667949 -2.602296 -0.722088
v -1.167483 -30.974249 745.593201 1.000000 1.000000 1.000000
vn 2.142256 -2.091056 -1.149691
v -0.471636 -30.370434 745.593140 1.000000 1.000000 1.000000
vn 0.801177 -2.983407 0.096991
v -1.683407 -31.261930 745.593018 1.000000 1.000000 1.000000
vn 2.101168 -2.214141 -0.084316
v -4.674822 -32.263939 745.593506 1.000000 1.000000 1.000000
vn 1.735193 -2.837442 0.171578
v -6.266032 -34.146954 745.574585 1.000000 1.000000 1.000000
vn 1.272449 -3.035805 0.230578
v -7.124274 -34.531605 745.307373 1.000000 1.000000 1.000000
vn -2.930073 -0.965284 0.446310
v -15.302979 -37.503689 725.505005 1.000000 1.000000 1.000000
vn -2.669620 1.631160 0.078132
v -14.904901 -29.430796 725.505005 1.000000 1.000000 1.000000
vn -0.857807 2.997219 -0.467804
v -10.889430 -26.498714 725.505005 1.000000 1.000000 1.000000
vn -0.692972 2.978774 -0.755870
v -7.565780 -25.861099 729.443970 1.000000 1.000000 1.000000
vn 1.145880 -1.113640 0.276384
v -7.560997 -36.143204 725.505676 1.000000 1.000000 1.000000
vn -3.026301 -0.403157 0.509853
v -16.178556 -32.860878 725.505066 1.000000 1.000000 1.000000
vn 0.725399 -2.977085 0.222444
v -10.426900 -29.471600 725.505005 1.000000 1.000000 1.000000
vn -3.099147 -0.238007 0.427703
v -15.874950 -35.038826 725.505005 1.000000 1.000000 1.000000
vn -2.921382 -0.688486 0.673731
v -15.813931 -35.747456 725.505066 1.000000 1.000000 1.000000
vn 1.699734 -2.634384 0.180584
v -11.672772 -30.157167 725.505005 1.000000 1.000000 1.000000
vn -0.756935 2.993324 -0.654358
v -7.565784 -30.564148 742.072693 1.000000 1.000000 1.000000
vn 1.974292 -2.355556 0.469529
v -8.934190 -37.543179 725.505005 1.000000 1.000000 1.000000
vn 0.235351 -5.287267 1.073186
v -11.206747 -37.625034 734.650085 1.000000 1.000000 1.000000
vn -2.169276 -2.196638 0.046949
v -9.383751 -29.948462 725.505066 1.000000 1.000000 1.000000
vn 2.273766 1.974057 -0.205117
v -12.536069 -32.681721 725.505005 1.000000 1.000000 1.000000
vn -3.015615 -0.781807 0.417351
v -15.431151 -36.997684 725.505005 1.000000 1.000000 1.000000
vn -2.904813 -0.977365 0.559092
v -15.709200 -36.076801 725.505005 1.000000 1.000000 1.000000
vn -4.414343 -2.681696 1.487642
v -14.272222 -35.227463 737.195068 1.000000 1.000000 1.000000
vn 1.578588 1.992869 1.514017
v -11.468693 -33.956837 725.511841 1.000000 1.000000 1.000000
vn 0.614248 -2.879788 0.522656
v -11.884933 -39.429417 725.505127 1.000000 1.000000 1.000000
vn -2.124970 2.294776 -0.002434
v -14.326400 -28.624901 725.505005 1.000000 1.000000 1.000000
vn -1.890144 2.486909 -0.208526
v -14.117937 -28.478369 725.505005 1.000000 1.000000 1.000000
vn -1.940853 2.465299 -0.173388
v -13.485557 -27.928003 725.505066 1.000000 1.000000 1.000000
vn 2.381987 -2.008287 -0.077506
v -13.001061 -31.110054 725.505005 1.000000 1.000000 1.000000
vn 2.588217 1.566075 0.032316
v -12.238792 -33.461121 725.505798 1.000000 1.000000 1.000000
vn -2.668829 -1.452899 0.534258
v -15.117869 -37.972752 725.505005 1.000000 1.000000 1.000000
vn 0.178115 3.108425 -0.507595
v -9.157654 -26.396183 725.505005 1.000000 1.000000 1.000000
vn -0.926993 -2.903658 0.176359
v -10.108178 -29.478792 725.505005 1.000000 1.000000 1.000000
vn -1.168151 0.361151 -2.299009
v -9.783806 -34.191547 725.507324 1.000000 1.000000 1.000000
vn -0.294639 1.224706 -1.045286
v -10.581856 -35.031090 725.521362 1.000000 1.000000 1.000000
vn -3.098216 -0.368506 0.475213
v -15.939027 -33.965351 725.505127 1.000000 1.000000 1.000000
vn 2.281444 -2.028646 0.588535
v -7.837787 -36.489353 725.505005 1.000000 1.000000 1.000000
vn -3.298536 4.893533 -0.254359
v -10.048182 -24.372061 737.587891 1.000000 1.000000 1.000000
vn -1.338981 2.821295 -0.395852
v -11.674173 -26.839079 725.505066 1.000000 1.000000 1.000000
vn -1.597955 2.693240 -0.321391
v -12.373484 -27.193592 725.505005 1.000000 1.000000 1.000000
vn -1.726309 2.610618 -0.276961
v -12.988278 -27.598112 725.505066 1.000000 1.000000 1.000000
vn 1.235919 -2.850914 0.210001
v -10.877211 -29.632284 725.505005 1.000000 1.000000 1.000000
vn -1.966792 -2.154812 0.969663
v -14.299650 -38.917252 725.505066 1.000000 1.000000 1.000000
vn -2.246518 -1.966431 0.796224
v -14.951806 -38.216736 725.504883 1.000000 1.000000 1.000000
vn 1.116881 2.922760 -0.357568
v -7.888196 -26.675665 725.505066 1.000000 1.000000 1.000000
vn -2.855634 -0.849378 -0.440426
v -7.565580 -26.711733 726.003357 1.000000 1.000000 1.000000
vn -0.598917 2.996513 -0.733699
v -7.565780 -26.331850 727.557495 1.000000 1.000000 1.000000
vn -2.522287 1.781821 0.108507
v -14.709383 -29.021828 725.505005 1.000000 1.000000 1.000000
vn 1.076360 -2.889072 0.227704
v -10.613300 -29.573000 725.505005 1.000000 1.000000 1.000000
vn -2.684916 1.561995 0.109227
v -15.425756 -30.107258 725.505005 1.000000 1.000000 1.000000
vn -2.812345 1.394009 0.113030
v -15.576601 -30.459208 725.505005 1.000000 1.000000 1.000000
vn 1.933411 -2.466805 0.105816
v -12.595932 -30.741869 725.505066 1.000000 1.000000 1.000000
vn -2.811776 0.001379 0.566825
v -9.415257 -31.069633 725.505432 1.000000 1.000000 1.000000
vn 2.800245 -0.891611 -0.444103
v -13.285303 -31.517239 725.505066 1.000000 1.000000 1.000000
vn 2.986625 0.047229 -0.734083
v -13.321500 -31.872801 725.505005 1.000000 1.000000 1.000000
vn -3.075847 0.309575 0.369670
v -9.186938 -31.769236 725.505615 1.000000 1.000000 1.000000
vn 1.659299 -2.557218 0.443521
v -10.557865 -38.790085 725.505127 1.000000 1.000000 1.000000
vn -0.521178 -2.904712 0.687816
v -13.201421 -39.432617 725.505066 1.000000 1.000000 1.000000
vn 0.677770 3.048360 -0.443703
v -8.558949 -26.461895 725.505005 1.000000 1.000000 1.000000
vn -0.201623 3.106682 -0.519772
v -10.096089 -26.396732 725.505005 1.000000 1.000000 1.000000
vn -2.810026 -0.591514 0.254588
v -9.149706 -30.279470 725.506653 1.000000 1.000000 1.000000
vn -2.846779 1.280591 0.134487
v -15.802610 -30.863249 725.505066 1.000000 1.000000 1.000000
vn -3.015725 0.739511 0.231791
v -16.099377 -31.680548 725.505188 1.000000 1.000000 1.000000
vn 2.583108 1.063786 -0.518391
v -13.300692 -32.078945 725.505615 1.000000 1.000000 1.000000
vn -3.083552 0.173308 0.359598
v -16.189686 -32.251270 725.505005 1.000000 1.000000 1.000000
vn -2.536068 1.521613 -0.615531
v -9.494997 -32.485039 725.433838 1.000000 1.000000 1.000000
vn 1.945751 2.423278 -0.158638
v -12.938330 -32.431786 725.505127 1.000000 1.000000 1.000000
vn -2.951717 -1.021953 0.432699
v -15.624609 -36.270969 725.505005 1.000000 1.000000 1.000000
vn 1.900525 -2.475490 0.433959
v -9.816003 -38.160461 725.505005 1.000000 1.000000 1.000000
vn -1.385794 -2.541173 0.847964
v -13.940181 -39.186016 725.505005 1.000000 1.000000 1.000000
vn 3.789861 -2.961633 -0.176774
v -10.544689 -28.640631 737.010437 1.000000 1.000000 1.000000
vn -5.396529 1.756579 0.835341
v -14.893460 -29.889973 735.482117 1.000000 1.000000 1.000000
vn 0.915231 3.723117 -0.543549
v -11.342587 -34.605602 726.234314 1.000000 1.000000 1.000000
vn 1.747823 -2.625823 0.240212
v -7.565796 -35.441711 732.024414 1.000000 1.000000 1.000000
vn -0.957153 2.852722 -0.791431
v -7.565866 -24.773027 733.140503 1.000000 1.000000 1.000000
vn -4.867770 0.216170 0.050088
v -8.658018 -30.999134 729.261597 1.000000 1.000000 1.000000
vn 2.656962 -3.190083 -0.087164
v -7.549655 -34.725384 745.090149 1.000000 1.000000 1.000000
vn -5.365324 -1.761697 0.532381
v -3.192679 -28.169325 774.723694 1.000000 1.000000 1.000000
vn -0.113880 1.188891 -2.340629
v -6.858733 -26.524996 745.487305 1.000000 1.000000 1.000000
vn 1.267518 2.378836 -0.727020
v -11.317959 -33.133575 734.659363 1.000000 1.000000 1.000000
vn -1.245859 3.021567 -0.727600
v -6.144114 -22.255989 745.575806 1.000000 1.000000 1.000000
vn 2.796970 1.109168 -1.752864
v -7.566307 -30.015453 744.885864 1.000000 1.000000 1.000000
vn 1.105680 -0.225598 -2.581959
v -7.124993 -30.014765 745.489319 1.000000 1.000000 1.000000
vn 3.633491 -2.609284 -1.501396
v 3.092506 -29.797363 751.192017 1.000000 1.000000 1.000000
vn 2.964840 0.893436 -0.712114
v 0.467306 -25.548258 745.593201 1.000000 1.000000 1.000000
vn 4.445084 -1.034689 -2.576649
v -8.149250 -27.876076 744.863831 1.000000 1.000000 1.000000
vn 1.262416 1.939887 -1.772800
v -6.259336 -29.997631 745.590210 1.000000 1.000000 1.000000
vn -2.791898 5.069490 -0.235904
v -5.867874 -21.468536 748.372925 1.000000 1.000000 1.000000
vn 2.426379 -5.125053 -0.688354
v -2.828433 -30.759596 752.101746 1.000000 1.000000 1.000000
vn 2.028229 -5.536936 0.445246
v -5.783676 -33.471497 751.866699 1.000000 1.000000 1.000000
vn 0.081081 -5.108522 0.338385
v -0.584672 -33.414490 763.225342 1.000000 1.000000 1.000000
vn 1.321416 2.359483 -1.091291
v -3.402330 -28.020739 753.577820 1.000000 1.000000 1.000000
vn 0.318975 -2.279735 0.903936
v -1.300243 -23.131063 755.770874 1.000000 1.000000 1.000000
vn -1.226887 -3.807607 0.706028
v 2.354144 -22.561022 762.243774 1.000000 1.000000 1.000000
vn 4.041378 -0.947339 -0.742154
v 10.179653 -26.411396 764.259583 1.000000 1.000000 1.000000
vn 2.921259 3.844911 -1.066142
v -0.880878 -25.050783 762.869324 1.000000 1.000000 1.000000
vn 1.912269 1.203488 -0.980464
v 2.941978 -22.865526 764.312134 1.000000 1.000000 1.000000
vn -0.110634 1.620378 -0.574489
v 1.041232 -27.818443 789.798950 1.000000 1.000000 1.000000
vn -1.314518 0.930961 0.071715
v 4.708953 -25.060835 764.297913 1.000000 1.000000 1.000000
vn 1.716282 3.201954 -0.206831
v 6.893229 -16.589903 766.517700 1.000000 1.000000 1.000000
vn 3.778122 -0.745920 -0.269764
v -1.540811 -24.607103 779.305847 1.000000 1.000000 1.000000
vn -1.443185 -1.952960 -0.272946
v 4.827404 -20.520178 772.022827 1.000000 1.000000 1.000000
vn -3.811096 4.270106 0.415321
v -1.078523 -20.575947 775.892151 1.000000 1.000000 1.000000
vn 0.002131 -0.013670 -0.187168
v 0.906197 -25.246038 795.051697 1.000000 1.000000 1.000000
vn 1.945671 -2.432635 1.712024
v 3.704501 -30.386242 802.343628 1.000000 1.000000 1.000000
vn -0.591165 -0.212291 0.405713
v -12.552770 -31.412172 804.376160 1.000000 1.000000 1.000000
vn 0.902529 1.012496 1.144185
v 5.419904 -22.078114 803.851501 1.000000 1.000000 1.000000
# 169 vertices, 0 vertices normals

f 80//80 72//72 1//1
f 80//80 1//1 2//2
f 80//80 4//4 5//5
f 142//142 78//78 20//20
f 148//148 154//154 149//149
f 148//148 149//149 145//145
f 138//138 6//6 17//17
f 100//100 150//150 49//49
f 100//100 49//49 29//29
f 150//150 143//143 48//48
f 3//3 100//100 108//108
f 100//100 71//71 109//109
f 80//80 5//5 136//136
f 100//100 10//10 137//137
f 138//138 142//142 8//8
f 138//138 8//8 13//13
f 142//142 9//9 8//8
f 152//152 80//80 139//139
f 138//138 14//14 7//7
f 138//138 13//13 14//14
f 80//80 11//11 18//18
f 133//133 138//138 16//16
f 133//133 16//16 15//15
f 133//133 19//19 25//25
f 133//133 15//15 19//19
f 148//148 55//55 56//56
f 100//100 23//23 21//21
f 152//152 66//66 22//22
f 162//162 43//43 33//33
f 100//100 29//29 23//23
f 133//133 25//25 31//31
f 142//142 26//26 78//78
f 142//142 148//148 144//144
f 80//80 27//27 139//139
f 150//150 162//162 28//28
f 150//150 28//28 41//41
f 148//148 133//133 31//31
f 154//154 36//36 59//59
f 151//151 152//152 22//22
f 162//162 33//33 34//34
f 154//154 57//57 58//58
f 154//154 58//58 36//36
f 154//154 59//59 61//61
f 146//146 151//151 37//37
f 146//146 37//37 64//64
f 151//151 38//38 39//39
f 162//162 42//42 43//43
f 162//162 46//46 45//45
f 162//162 47//47 46//46
f 162//162 50//50 47//47
f 150//150 48//48 49//49
f 162//162 146//146 53//53
f 162//162 53//53 52//52
f 148//148 141//141 55//55
f 57//57 148//148 56//56
f 146//146 63//63 60//60
f 146//146 62//62 63//63
f 146//146 64//64 62//62
f 151//151 39//39 37//37
f 151//151 65//65 38//38
f 68//68 85//85 83//83
f 69//69 112//112 134//134
f 140//140 80//80 152//152
f 75//75 134//134 98//98
f 73//73 134//134 127//127
f 74//74 95//95 133//133
f 76//76 134//134 75//75
f 83//83 85//85 130//130
f 114//114 77//77 133//133
f 131//131 79//79 80//80
f 123//123 138//138 81//81
f 81//81 138//138 133//133
f 97//97 135//135 96//96
f 79//79 99//99 80//80
f 92//92 82//82 142//142
f 76//76 84//84 134//134
f 85//85 134//134 84//84
f 89//89 88//88 100//100
f 89//89 100//100 90//90
f 77//77 104//104 133//133
f 86//86 92//92 135//135
f 142//142 135//135 92//92
f 93//93 85//85 68//68
f 165//165 134//134 140//140
f 95//95 81//81 133//133
f 128//128 96//96 135//135
f 97//97 86//86 135//135
f 99//99 72//72 80//80
f 120//120 87//87 80//80
f 101//101 100//100 70//70
f 150//150 165//165 162//162
f 101//101 102//102 100//100
f 93//93 106//106 85//85
f 106//106 105//105 80//80
f 94//94 122//122 100//100
f 3//3 107//107 100//100
f 100//100 109//109 108//108
f 104//104 111//111 133//133
f 112//112 113//113 134//134
f 113//113 124//124 134//134
f 118//118 138//138 115//115
f 116//116 91//91 133//133
f 116//116 133//133 117//117
f 117//117 133//133 126//126
f 126//126 133//133 142//142
f 118//118 128//128 138//138
f 142//142 138//138 135//135
f 82//82 129//129 142//142
f 98//98 134//134 73//73
f 119//119 131//131 80//80
f 107//107 121//121 100//100
f 121//121 94//94 100//100
f 122//122 70//70 100//100
f 102//102 103//103 100//100
f 90//90 100//100 103//103
f 88//88 110//110 134//134
f 88//88 134//134 100//100
f 110//110 69//69 134//134
f 111//111 74//74 133//133
f 123//123 115//115 138//138
f 114//114 133//133 91//91
f 124//124 125//125 134//134
f 129//129 126//126 142//142
f 125//125 127//127 134//134
f 135//135 138//138 128//128
f 84//84 130//130 85//85
f 80//80 85//85 106//106
f 105//105 132//132 80//80
f 119//119 80//80 87//87
f 132//132 120//120 80//80
f 80//80 2//2 4//4
f 80//80 140//140 85//85
f 162//162 24//24 32//32
f 100//100 137//137 71//71
f 80//80 136//136 11//11
f 138//138 7//7 6//6
f 100//100 12//12 10//10
f 100//100 21//21 12//12
f 138//138 17//17 16//16
f 142//142 20//20 9//9
f 140//140 134//134 85//85
f 142//142 133//133 148//148
f 80//80 18//18 27//27
f 100//100 134//134 150//150
f 154//154 155//155 158//158
f 150//150 41//41 143//143
f 162//162 40//40 24//24
f 146//146 35//35 30//30
f 142//142 144//144 26//26
f 148//148 145//145 144//144
f 146//146 30//30 54//54
f 154//154 61//61 149//149
f 152//152 67//67 66//66
f 162//162 32//32 28//28
f 162//162 34//34 40//40
f 146//146 60//60 35//35
f 151//151 22//22 65//65
f 162//162 44//44 42//42
f 162//162 45//45 44//44
f 162//162 51//51 50//50
f 162//162 52//52 51//51
f 146//146 147//147 53//53
f 146//146 54//54 147//147
f 153//153 146//146 157//157
f 148//148 31//31 141//141
f 57//57 56//56 58//58
f 152//152 139//139 67//67
f 157//157 146//146 162//162
f 146//146 153//153 151//151
f 152//152 153//153 140//140
f 165//165 150//150 134//134
f 155//155 148//148 57//57
f 154//154 148//148 155//155
f 155//155 57//57 161//161
f 152//152 151//151 153//153
f 161//161 57//57 154//154
f 161//161 154//154 158//158
f 166//166 161//161 160//160
f 159//159 158//158 156//156
f 161//161 156//156 155//155
f 159//159 161//161 158//158
f 158//158 155//155 163//163
f 156//156 158//158 160//160
f 156//156 160//160 155//155
f 159//159 160//160 161//161
f 156//156 164//164 159//159
f 156//156 161//161 164//164
f 155//155 160//160 159//159
f 157//157 162//162 167//167
f 164//164 163//163 155//155
f 153//153 157//157 167//167
f 164//164 155//155 159//159
f 153//153 167//167 140//140
f 162//162 165//165 169//169
f 163//163 160//160 158//158
f 163//163 164//164 166//166
f 161//161 166//166 164//164
f 162//162 169//169 167//167
f 160//160 163//163 166//166
f 168//168 165//165 140//140
f 140//140 167//167 168//168
f 169//169 165//165 168//168
f 169//169 168//168 167//167
# 203 faces, 0 coords texture

# End of File
